# xmcd
#
# Track frame offsets: 
#        150
#        14156
#        28508
#        42646
#        58279
#        72851
#        87608
#        99000
#        110636
#        125905
#        140295
#        154825
#        169214
#        184327
#        197374
#        210888
#        226286
#        237962
#        251801
#        266473
#        279143
#        292577
#        307138
#        320731
#
# Disc length: 4450 seconds
#
# Revision: 0
# Processed by: cddbd v1.5.2PL0 Copyright (c) Steve Scherf et al.
# Submitted via: ExactAudioCopy v0.99pb5
#
DISCID=62116018
DTITLE=Various Artist - I'm Going Where The Water Drinks Like Wine: 18 Unsung
DTITLE=Bluesmen Rarities 1923-1929
DYEAR=2010
DGENRE=Blues
TTITLE0=Sylvester Weaver - Guitar Blues
TTITLE1=Bo Weavil Jackson - Why Do You Moan?
TTITLE2=Richard Rabbit Brown - James Alley Blues
TTITLE3=Andrew Baxter - K.C. Railroad Blues
TTITLE4=Luke Jordan - Traveling Coon
TTITLE5=Luke Jordan - Pick Poor Robin Clean
TTITLE6=Buddy Boy Hawkins - Workin' on the Railroad
TTITLE7=Buddy Boy Hawkins - Yellow Woman Blues
TTITLE8=Ishman Bracey - Fore Day Blues, The
TTITLE9=Willard Ramblin' Thomas - No Job Blues
TTITLE10=Arthur Petties - Down South Blues
TTITLE11=Arthur Petties - Out on Santa-Fe Blues
TTITLE12=Rube Lacey - Mississippi Jailhouse Groan
TTITLE13=Rube Lacey - Ham Hound Crave
TTITLE14=Tom Dickson - Labor Blues
TTITLE15=Freddie Spruell - Low-Down Mississippi Bottom Man
TTITLE16=Jesse Babyface Thomas - Blue Goose Blues
TTITLE17=Willie Baker - Bad Luck Moan
TTITLE18=Willie Baker - Sweet Patunia Blues
TTITLE19=Kid Bailey - Mississippi Bottom Blues
TTITLE20=Kid Bailey - Rowdy Blues
TTITLE21=Blind Willie Reynolds - Nehi Blues - Blind Joe Reynolds
TTITLE22=Henry Townsend - Poor Man Blues
TTITLE23=Noah Lewis - Devil in the Woodpile
EXTD=
EXTT0=
EXTT1=
EXTT2=
EXTT3=
EXTT4=
EXTT5=
EXTT6=
EXTT7=
EXTT8=
EXTT9=
EXTT10=
EXTT11=
EXTT12=
EXTT13=
EXTT14=
EXTT15=
EXTT16=
EXTT17=
EXTT18=
EXTT19=
EXTT20=
EXTT21=
EXTT22=
EXTT23=
PLAYORDER=
